<svg xmlns="http://www.w3.org/2000/svg" width="50" height="50" viewBox="2.5 -5.0 50.0 67.5">    <path fill-rule="evenodd" clip-rule="evenodd" d="M665.258 7640.19h33.886v16.048h1.833v16.025h-38.155v-16.025h2.437v-16.05h-.002zm25.72 39.708h5.954v5.852h-5.954v-5.852zm-23.912 0h5.928v5.852h-5.928v-5.852zm-4.068-5.55H701.1l-1.48 3.64-34.738.105-1.884-3.745zm44.257-28.106h-3.867v3.693h-4.07v2.158h7.938v-5.85zm-50.16 0v5.852h8.062v-2.158h-4.144v-3.693h-3.92zm10.676 9.996h28.86v-14.72h-28.86v14.72zm-.904 9.293v4.272h6.105v-4.27h-6.104zm24.59 0v4.272h6.103v-4.27h-6.104zm-16.25-5.65v1.835h13.99v-1.836h-13.99zm.023 4.444v1.836h14.016v-1.836H675.23zm.026 4.45v1.804h14.016v-1.805h-14.016z"/>    <path d="M5.793 24.996c0 10.783 8.606 19.52 19.19 19.52 4.975 0 9.526-1.91 12.955-5.076L9.718 13.195c-2.473 3.266-3.925 7.352-3.925 11.8zM24.982 5.45C20.5 5.45 16.442 7 13.18 9.6l27.923 26.013c1.977-3.066 3.098-6.69 3.098-10.617C44.2 14.22 35.6 5.45 24.983 5.45z"/>    <path d="M24.998.352C11.388.352.354 11.39.354 25S11.387 49.648 25 49.648c13.61 0 24.647-11.037 24.647-24.648S38.61.352 24.997.352zm-.016 47.197c-12.2 0-22.155-10.122-22.155-22.554 0-5.205 1.75-10.02 4.683-13.844l-.033-.03.627-.696C8.63 9.8 9.19 9.206 9.75 8.646l1.088-1.187.132.1c3.826-3.198 8.672-5.112 14.013-5.112 12.262 0 22.188 10.09 22.188 22.55 0 12.43-9.926 22.55-22.188 22.55z"/></svg>