<svg xmlns="http://www.w3.org/2000/svg" width="100" height="100" viewBox="5.0 -10.0 100.0 135.0"><path d="M30.072 45.743l11.982 11.982-3.924 3.928c-.596.62-.588 1.61.024 2.22.24.24.608.41 1.447.462l11.1.008 11.18.002c.698 0 1.35-.3 1.813-.777.477-.465.78-1.115.78-1.812l-.005-11.18-.01-11.167c-.01-.692-.186-1.11-.46-1.382-.61-.612-1.6-.62-2.22-.024l-3.836 3.833-11.98-11.983c-.865-.865-2.267-.865-3.13 0L30.07 42.612c-.864.865-.864 2.266 0 3.13zM80.35 68.936c.623 2.574.178 5.395-1.463 7.736-3.03 4.328-8.996 5.38-13.324 2.35-.12-.084-.234-.17-.35-.258L57.127 89.15l-1.98 2.538c.335.256.675.506 1.02.75 11.74 8.22 27.92 5.365 36.138-6.37 4.463-6.376 5.662-14.063 3.943-21.07l-3.12.774-12.778 3.164zm-13.928-6.13c3.098-1.706 7.025-1.624 10.117.54.522.367 1 .777 1.425 1.223l9.254-8.985 2.497-2.428c-1.135-1.172-2.396-2.256-3.785-3.227-5.87-4.11-12.852-5.453-19.393-4.298l.005 16.12c0 .363-.04.717-.123 1.055zm-4.227 12.005c-1.102-2.694-.95-5.84.613-8.485-.3.06-.61.094-.93.094 0 0-9.71-.003-16.338-.007-.91 4.885-.39 9.924 1.45 14.492l3.234-1.295 11.97-4.8zm16.657-9.17c.123.173.24.35.352.532l11.13-6.98 2.75-1.724c-.3-.482-.618-.96-.952-1.424l-2.816 2.037-10.464 7.56zm-15.62 10.9c-.12-.173-.23-.353-.336-.532l-14.248 8.277c.286.49.59.975.912 1.447l13.672-9.19zm11.96-11.27c-3.27-2.285-7.77-1.492-10.054 1.773-2.29 3.266-1.494 7.768 1.77 10.055 3.267 2.285 7.767 1.492 10.054-1.773s1.495-7.768-1.77-10.055zM32.186 37.566c-2.825 1.013-6.082.686-8.727-1.167-.12-.084-.235-.17-.35-.257l-8.086 10.384-1.978 2.538c.333.257.672.507 1.02.75 6.38 4.47 14.073 5.665 21.087 3.94l-6.547-6.547c-1.674-1.674-1.674-4.39 0-6.063l3.58-3.58zm6.06-11.253c.433 1.79.35 3.7-.292 5.485l3.41-3.41c1.675-1.675 4.39-1.675 6.063 0l6.652 6.65c1.076-4.186 1.076-8.54.064-12.663l-3.12.773-12.776 3.165zm-18.154 5.875c-1.19-2.91-.92-6.347 1.018-9.114 3.032-4.328 8.998-5.38 13.326-2.35.524.368 1 .778 1.427 1.223l9.253-8.984 2.5-2.428c-1.136-1.173-2.4-2.255-3.786-3.226C32.09-.91 15.913 1.94 7.694 13.68c-5.23 7.47-5.977 16.734-2.806 24.604l3.233-1.296 11.973-4.8zm16.656-9.17c.123.174.24.352.35.532l11.132-6.98 2.75-1.724c-.3-.483-.62-.958-.95-1.422L47.21 15.46l-10.46 7.558zm-15.62 10.9c-.12-.173-.23-.352-.338-.533l-14.247 8.28c.287.49.59.973.912 1.448L21.13 33.92zM44.985 5.66c10.157 7.113 14.142 19.76 10.728 31.015l2.23 2.23c1.48-1.477 2.398-2.397 2.4-2.398 1.434-1.375 3.71-1.357 5.123.055.773.774 1.05 1.787 1.064 2.82.004.005.006 1.724.006 4.208 6.947-1.137 14.328.333 20.55 4.69 12.65 8.857 15.726 26.293 6.868 38.94-8.86 12.65-26.29 15.726-38.94 6.868-9.165-6.416-13.304-17.334-11.52-27.676-2.363 0-3.98-.002-3.985-.006-1.054-.06-2.047-.29-2.82-1.064-1.412-1.41-1.43-3.688-.055-5.123 0-.002.96-.96 2.49-2.492L36.796 55.4c-7.862 2.293-16.656 1.13-23.887-3.934-12.65-8.858-15.723-26.29-6.867-38.94C14.9-.125 32.335-3.2 44.985 5.657zm-11.897 16.99c-3.266-2.286-7.767-1.492-10.053 1.774-2.287 3.266-1.493 7.767 1.772 10.053 3.266 2.287 7.767 1.493 10.053-1.772 2.287-3.266 1.494-7.767-1.772-10.054zm40.467 44.96c1.975 1.382 2.455 4.104 1.072 6.08s-4.105 2.454-6.08 1.07-2.455-4.104-1.072-6.08 4.103-2.453 6.08-1.07zm-42.103-42.62c1.975 1.38 2.455 4.103 1.072 6.08-1.383 1.974-4.105 2.454-6.08 1.07-1.976-1.382-2.456-4.104-1.073-6.08 1.385-1.975 4.107-2.454 6.082-1.07z"/></svg>