<svg xmlns="http://www.w3.org/2000/svg" width="100" height="100" viewBox="5.0 -10.0 100.0 135.0">    <path d="M21.374 10.94c-1.74-1.74-4.562-1.74-6.304 0-1.74 1.74-1.74 4.56.003 6.3l6.3-6.3zM14.207 81.355c-2.844 2.18-3.255 6.383-8.036 4.722-4.78-1.662 6.24 9.188 12.2 2.946 3.198-3.345 2.183-4.92.773-6.722-1.366-1.74-2.562-2.765-4.936-.945zM90.54 80.105L76.085 65.65c-.534.665-1.094 1.312-1.687 1.936v8.332c0 .208-.015.414-.03.618l9.868 9.87L95 90.867l-4.46-10.76zm-5.645 5.23s.205-1.145.778-1.72c.57-.572 1.66-.416 1.896-.18-.237-.236-.395-1.32.18-1.895.57-.573 1.715-.777 1.715-.777l2.564 6.182-.952.95-6.183-2.56zM31.527 33.7c1.614-2.532 3.652-4.75 6.034-6.57l-4.154-4.155-10.31-10.308-6.3 6.298L31.527 33.7z"/>    <path d="M52.388 18.5c-6.054 0-11.65 1.93-16.24 5.18l2.59 2.59c.5-.337 1.013-.658 1.54-.962.342-.203.784-.083.982.262.2.346.082.784-.263.984-3.97 2.297-7.19 5.657-9.31 9.718-.13.246-.38.387-.638.387-.114 0-.23-.028-.334-.083-.353-.185-.488-.62-.305-.972.113-.214.24-.42.358-.63l-2.61-2.61c-2.482 4.193-3.93 9.068-3.93 14.294 0 7.832 3.198 14.916 8.36 20.02v9.237c0 2.732 2.217 4.948 4.95 4.948s4.95-2.216 4.95-4.948c0 2.732 2.214 4.948 4.95 4.948 2.733 0 4.95-2.216 4.95-4.948 0 2.732 2.214 4.948 4.946 4.948 2.734 0 4.95-2.216 4.95-4.948 0 2.732 2.218 4.948 4.95 4.948s4.95-2.216 4.95-4.948V66.68c5.162-5.104 8.36-12.188 8.36-20.02C80.548 31.11 67.94 18.5 52.39 18.5zM41.963 58.19c-4.1 0-7.422-3.323-7.422-7.424 0-4.1 3.324-7.423 7.423-7.423 4.102 0 7.427 3.323 7.427 7.423s-3.325 7.423-7.427 7.423zm12.392 6.916H50.42c-1.15 0-1.67-.84-1.156-1.87l2.188-4.375c.26-.514.596-.77.936-.77.34 0 .678.256.934.77l2.19 4.376c.513 1.03-.008 1.87-1.157 1.87zm8.453-6.917c-4.097 0-7.424-3.323-7.424-7.424 0-4.1 3.327-7.423 7.424-7.423 4.103 0 7.426 3.323 7.426 7.423s-3.324 7.423-7.426 7.423zM24.025 70.978c-.242.06-.473.194-.633.438l-4.36 6.557c-.375.56-.29 1.41.185 1.887l2.058 2.068c.475.477 1.313.547 1.86.157l6.655-4.738c.142-.1.248-.225.322-.356-2.684-1.202-4.85-3.344-6.087-6.012zM77.63 29.794l12.795-12.798c1.904-1.904 2.005-4.92.223-6.7-1.78-1.784-4.797-1.682-6.7.22L71.432 23.034c2.386 1.93 4.484 4.204 6.197 6.76zM25.347 69.116c1.023 2.428 2.813 4.44 5.062 5.764v-7.305c-.573-.602-1.126-1.224-1.65-1.87l-3.413 3.41z"/></svg>