<svg xmlns="http://www.w3.org/2000/svg" width="100" height="42.855" viewBox="17 -20 65.0 60" fill="#222">    <path d="M92.385.69L61.74 12.652l10.883 21.695 2.93-.67.796 1.59L100 26.125M61.698 15.604s-.733.815-1.71.815c-.98 0-5.218-2.12-5.788-2.528-.57-.407-1.875-1.712-4.238-1.06-2.364.652-5.624 1.712-6.113 2.12-.49.407-1.468 1.792-1.468 2.282s-.57 1.91-.815 2.056-1.305 1.856-.327 2.834 1.957.734 2.853.408c.897-.328 3.16-3.08 3.16-3.73 0-.653-.612-2.3-.612-2.3s1.447-.138 1.53 1.234c.08 1.372.896-1.154 3.097.965 2.2 2.12 7.673 6.24 7.673 6.24s3.756-.018 4.325-.344c.57-.325-.166.492-.52.782-.354.29-1.984.746-1.984.746s1.44 1.398 1.684 2.05c.244.653 1.14 2.8 1.14 2.8l4.88-2.33s-5.38-11.736-6.766-13.04zM4.035 0l29.117 11.065 3.342.913s.354.266 0 1.06l-9.9 22.23-2.57-1.224-.998 2.098L0 26.04 4.035 0zM37.207 14.504s2.73-.367 4.482-1.304c1.75-.937 5.46-2.445 6.642-2.078 1.18.367 1.19.46 1.19.46s-5.124 1.842-6.183 2.29c-1.06.448-1.98 2.402-2.02 2.85-.04.45-1.047 2.805-1.374 3.17s-.846 2.507.703 3.485c1.547.978 2.383.336 2.79.172.408-.162 2.1-.735 2.956-2s1.834-2.566 2.628-2.363c.794.204 1.06-.12 2.567 1.47 1.51 1.588 4.952 4.034 4.952 4.034s4.894 4.062 5.033 4.4c.324.79 1.6 3.12 1.397 3.696-.138.393-.576 1.646-1.846 1.807-.68.086-1.06-.244-1.06-.244L55.71 29.5l-1.55-2.026s.327 2.19.572 2.516c.244.326 3.038 3.276 3.34 3.627.48.55 1.263 1.115 1.43 1.512.344.81-.653 2.4-1.918 2.4-1.263 0-2.017-.497-2.017-.497L52.63 34.35l-1.16-1.436s.04 1.56.243 1.884c.204.326 3.383 3.22 3.383 3.22l.45.325s.08.408-.654.938c-.733.53-1.95.7-2.073.66-.123-.04-3.408-3.512-3.795-3.798-.387-.285 0 1.382 0 1.382l1.102 1.022 1.624 1.75s.128.044-.443.533c-.57.487-2.906.326-2.906.326s1.542-1.978.167-3.14c-.73-.616-1.008-.738-1.008-.738.317-.736.62-1.687.335-2.5-.286-.816-.988-1.57-1.762-1.774-.774-.204-2.028.153-2.028.153s.167-1.373-1.11-2.314c-.774-.57-2.162-.512-3.252.252-.604.423-2.056 1.573-2.056 1.573.04-.336-1.54-3.605-4.78-2.352l-1.874-1.592 6.174-14.22zM32.133 31.51s-.477 1.737.05 2.198c2.202 1.926 3.394 1.417 3.394 1.417s0 .814.815 1.793c.815.978 2.445 1.67 2.445 1.67s-.326.418.408 1.233c.733.816 2.058 1.56 3.545 1.04 0 0-.47.438.428 1.253.896.814 1.243.785 2.14.703.896-.082 2.2-1.578 2.2-1.578s1.07-1.634 0-2.528c-.82-.685-1.946-.223-2.108-.02-.163.203 1.213-1.51 1.406-2.72.16-1.02-.418-1.488-1.314-1.773s-1.714.104-2.2.55c-.548.503-1.04.867-1.04.867l-2.493 1.75s2.583-2.31 3.01-3.32c.238-.557.168-1.475-.52-1.895-.465-.284-.895-.632-1.833-.41-.177.045-2.608 1.796-2.608 1.796l-.857.61-.61.367s.65-1.142 0-1.834c-.653-.695-1.442-2.078-4.26-1.17z"/></svg>