<svg xmlns="http://www.w3.org/2000/svg" width="90" height="90" viewBox="4.5 -9.0 90.0 121.5">    <path d="M38.6 1.2c-.8 0-1.5.6-1.5 1.3v84.9c0 .7.7 1.3 1.5 1.3s1.5-.6 1.5-1.3V2.5c0-.7-.6-1.3-1.5-1.3zM51.4 1.2c-.8 0-1.5.6-1.5 1.3v84.9c0 .7.7 1.3 1.5 1.3s1.5-.6 1.5-1.3V2.5c0-.7-.7-1.3-1.5-1.3zM27.4 54.9V2.5c0-.7-.7-1.3-1.5-1.3s-1.5.6-1.5 1.3v52.6c-2.3.8-3.9 3-3.9 5.6v2.9c0 2.6 1.6 4.7 3.9 5.6v18.3c0 .7.7 1.3 1.5 1.3s1.5-.6 1.5-1.3v-18c.5-.1 1.1-.3 1.5-.5v3.9h6.6v-5.2h-4.8c1-1 1.5-2.4 1.5-4v-1.2h3.3v-5.2H31c-.7-1.3-2.1-2.1-3.6-2.4zM76.8 1.2c-.8 0-1.5.6-1.5 1.3v84.9c0 .7.7 1.3 1.5 1.3s1.5-.6 1.5-1.3V2.5c0-.7-.7-1.3-1.5-1.3zM13.2 1.2c-.8 0-1.5.6-1.5 1.3v84.9c0 .7.7 1.3 1.5 1.3s1.5-.6 1.5-1.3V2.5c0-.7-.6-1.3-1.5-1.3zM41.7 78h6.6v5.2h-6.6zM29 78h6.6v5.2H29zM54.4 78H61v5.2h-6.6zM54.4 46.8H61V52h-6.6zM41.7 46.8h6.6V52h-6.6zM67.1 46.8h6.6V52h-6.6z"/>    <path d="M29 46.8h6.6V52H29zM16.3 46.8h6.6V52h-6.6zM41.7 67.6h6.6v5.2h-6.6zM22.9 37.1c-2.1.8-3.6 2.1-5 3.9-.2.2-.3.4-.5.6h5.5v-4.5zM72.2 41c-1.4-1.8-2.9-3.1-5-3.9v4.5h5.5c-.2-.2-.4-.4-.5-.6zM54.4 41.6H61v-5.4h-6.6v5.4zM41.7 36.2v5.4h6.6v-5.4H45M29 36.2v5.4h6.6v-5.4H29zM19.8 57.2h-3.5v12.4c1.3-.3 2.5-.5 3.6-.8l-2.8-11 2.7-.6zM5.1 62.7c-1.6 4.7 1.5 7.9 4.8 8.1L7.2 60.1l3-.8v-2.2H8.1c-1.8 3.3-3 5.6-3 5.6zM69.5 57.2l4 1L70.8 69c.9.2 1.9.4 3 .6V57.2h-4.3zM84.9 62.7s-1.2-2.3-2.9-5.5h-2.1v2.4l3.5.9-2.6 10.2c3-.6 5.6-3.6 4.1-8zM68.4 57h-.3c-.7-.8-1.6-1.4-2.6-1.8V2.5c0-.7-.7-1.3-1.5-1.3s-1.5.6-1.5 1.3v52.4c-1.5.3-2.8 1.1-3.7 2.3h-4.5v5.2h3.3v1.2c0 1.5.6 2.9 1.5 4h-4.8v5.2H61v-3.9c.5.2 1 .4 1.5.5v18c0 .7.7 1.3 1.5 1.3s1.5-.6 1.5-1.3V69.2c2.3-.8 3.9-3 3.9-5.6v-2.9c0-1.3-.4-2.5-1.1-3.5l.1-.2zM41.7 57.2h6.6v5.2h-6.6zM48.2 32.1V6.3c-1-.3-2.1-.4-3.2-.4s-2.2.2-3.3.4v25.8c1 .3 2.1.4 3.3.4 1.1.1 2.2-.1 3.2-.4zM35.6 9.8c-2.4 2.4-3.9 5.8-3.9 9.4s1.5 7 3.9 9.4V9.8zM54.3 9.8v18.9c2.4-2.4 3.9-5.8 3.9-9.5s-1.4-7-3.9-9.4z"/></svg>