<svg xmlns="http://www.w3.org/2000/svg" width="100" height="100" viewBox="-341.0 246.0 100.0 135.0">    <path d="M-313.966 340.07h11.96l-5.98-15.947M-290.118 340.07h11.963l-5.98-15.947"/>    <path d="M-346 313.77v8.82h9.364V356h81.565v-33.408h8.95v-8.82H-346zm69.816 27.264c-.017.098-.054.19-.105.282-.006.007-.006.023-.013.036-.005.005-.012.007-.017.012-.056.076-.124.145-.205.205 0 0-2.98 3.52-7.61 3.52-4.543 0-7.613-3.52-7.613-3.52-.08-.062-.147-.13-.205-.206-.003-.005-.01-.007-.016-.012-.003-.013-.003-.03-.013-.036-.05-.092-.088-.185-.104-.282-.005-.028-.013-.05-.018-.075-.01-.103-.004-.208.026-.306.005-.017.017-.023.017-.032.005-.007 0-.018.005-.02l6.742-17.99h-9.378l-.02 24.807h5.734v2.72h-14.315v-2.72h5.864v-24.81H-306.81l6.745 17.99c.002.005 0 .016.002.022.002.01.012.016.017.032.027.098.035.203.022.305-.002.024-.007.046-.01.074-.022.098-.056.19-.106.282-.01.007-.01.023-.017.036-.002.005-.014.007-.014.012-.06.076-.125.145-.205.205 0 0-3.072 3.52-7.614 3.52-4.625 0-7.61-3.52-7.61-3.52-.084-.062-.15-.13-.21-.206 0-.005-.003-.007-.008-.012-.01-.013-.01-.03-.015-.036-.056-.092-.09-.185-.107-.282-.006-.028-.01-.05-.013-.075-.012-.103-.005-.208.026-.306.004-.017.01-.023.015-.032.002-.007 0-.018.002-.02l7.157-19.094.01-.005c.114-.306.408-.525.754-.525h10.56v-2.994H-294.696v2.994H-284.138c.348 0 .64.22.755.525l.01.005 7.157 19.093c.005.005 0 .016.005.022.004.01.01.016.016.032.027.098.032.203.023.305-.004.024-.01.046-.014.074z"/>    <circle cx="-324.206" cy="291.933" r="5.451"/>    <circle cx="-309.82" cy="291.933" r="5.451"/>    <circle cx="-317.225" cy="279.22" r="5.45"/>    <circle cx="-302.508" cy="279.22" r="5.45"/>    <circle cx="-288.548" cy="279.22" r="5.45"/>    <circle cx="-274.657" cy="279.22" r="5.45"/>    <circle cx="-281.383" cy="291.933" r="5.451"/>    <path d="M-295.527 286.482c3.008 0 5.45 2.44 5.45 5.45 0 3.01-2.44 5.452-5.45 5.452-3.015 0-5.45-2.44-5.45-5.45 0-3.012 2.435-5.452 5.45-5.452zM-309.82 260.723c3.012 0 5.453 2.44 5.453 5.453 0 3.01-2.44 5.45-5.453 5.45-3.01 0-5.45-2.44-5.45-5.45 0-3.014 2.44-5.453 5.45-5.453zM-281.383 260.723c3.01 0 5.45 2.44 5.45 5.453 0 3.01-2.44 5.45-5.45 5.45-3.012 0-5.45-2.44-5.45-5.45 0-3.014 2.438-5.453 5.45-5.453zM-295.527 260.723c3.008 0 5.45 2.44 5.45 5.453 0 3.01-2.44 5.45-5.45 5.45-3.015 0-5.45-2.44-5.45-5.45 0-3.014 2.435-5.453 5.45-5.453zM-267.053 286.482c3.01 0 5.45 2.44 5.45 5.45 0 3.01-2.44 5.452-5.45 5.452-3.015 0-5.45-2.44-5.45-5.45 0-3.012 2.436-5.452 5.45-5.452zM-311.772 310.346v-3.86c0-3.62-2.13-7.168-6.364-7.168l-12.22-.005c-3.86 0-6.28 3.145-6.28 7.072v3.96h24.864zM-283.097 310.346v-3.86c0-3.62-2.13-7.168-6.365-7.168l-12.22-.005c-3.857 0-6.275 3.145-6.275 7.072v3.96h24.86zM-254.623 310.346v-3.86c0-3.62-2.13-7.168-6.365-7.168l-12.22-.005c-3.856 0-6.274 3.145-6.274 7.072v3.96h24.86z"/></svg>