<svg xmlns="http://www.w3.org/2000/svg" viewBox="5.0 -10.0 100.0 100.0" height="100" width="100"><path d="M61.917 47.006L45.905 39.47l10.482 15.717-2.43 22.742-1.227-.03-1.403-23.31L39.86 37.217l-9.908-4.86 5.278-6.332 5.043 3.553 8.15-.81 1.21-5.59L30.81 15.13 18.426 34.165l18.09 26.95L31.223 95h30.45l-.12-32.036 6.042-6.737 1.13-6.146M77.02 24.88L65.1 41.18l6.384 2.65 10.09-12.86"/><path d="M68.246 15.692L54.38 37.524l6.74 2.57L74.282 21.61M56.725 9.16L50.68 19.61l3.21 1.374-2.424 11.192-8.207.854 7.496 3.28 14.538-23.16M52.91 7.944L44.556 5l-5.39 9.684 8.038 3.438 1.387-2.372"/></svg>