<svg xmlns="http://www.w3.org/2000/svg" width="100" height="100" viewBox="-341.0 246.0 100.0 135.0">    <path d="M-295.383 327.436c-4.247-.044-7.955.755-11.15 2.153-2.88 1.262-5.038 2.91-5.66 4.67-.666 1.873.485 3.695 3.91 5.138 3.415 1.438 8.83 2.314 12.915 2.45 4.27.144 9.82-.864 13.048-2.347 2.91-1.337 3.88-3.067 3.267-4.876-1.347-3.96-7.926-7.1-16.33-7.188zm9.265 8.046c.064 1.08-.452 2.022-.964 2.54-1.412-.163-2.105-.244-3.44-.405.524-.522 1.214-1.445 1.136-2.535-.033-.476-.256-.882-.622-1.17-.395-.31-.94-.475-1.58-.473-1.222 0-1.965.47-2.777 1.766-1.233 1.97-2.692 2.696-5.435 2.625-2.918-.075-5.125-1.08-5.495-2.675-.008-.038-.01-.06-.02-.098-1.25-.028-1.878-.04-3.13-.07l.327-1.273 2.828.062c.012-.048.02-.07.03-.117.24-.994.8-1.643 1.273-2.105l2.94.462c-.42.415-1.072 1.108-1.172 2.143-.047.49.135.874.543 1.14.343.222.856.353 1.425.366.416.01.782-.056 1.125-.203.583-.254 1.117-.748 1.786-1.7 1.25-1.783 2.666-2.485 5.276-2.488 2.65-.002 4.696 1.024 5.47 2.678.02.04.03.06.046.1l3.16-.003.307 1.314-3.04.002c0 .046 0 .07.002.116zM-277.787 349.395l-15.144.003-.008 2.423 20.314-.004-3.785-10.583-3.563-.08M-311.234 341.152l-3.807.08-3.97 10.61 20.998-.042.303-2.486-15.79.017"/>    <path d="M-284.465 345.01l-19.075.03-.567 2.106 19.947-.002M-288.467 322.038l-13.277-.015-.357 1.652 13.875.032"/>    <path d="M-257.182 299.277h-20.726v-5.882l-3.898-.003-.002-8.086h2.246v-4.81h-2.567s0-4.81-3.206-8.98c-3.21-4.166-7.06-6.092-7.06-6.092l-.058-4.536h-1.923l-.003-4.765h-3.53l.002 4.765h-1.924l.06 4.536s-3.85 1.926-7.057 6.094c-3.21 4.167-3.205 8.98-3.205 8.98h-2.567v4.81h2.242v8.086h-4.246l.003 5.883h-20.695l.003 29.9h6.034v-9.528h4.267l.002 9.527 8.39.01L-328.295 356h64.792l-11.243-26.812 7.18-.012v-9.527h4.27v9.528l6.117-.002-.002-29.9zm-72.076 14.12v-3.828l4.267-.002v3.828h-4.268zm48.336-3.828v3.826h-4.27v-3.827h4.27zm-8.815 3.826h-4.267l-.002-3.827 4.266-.004.003 3.83zm-8.815 0h-4.268v-3.828l4.268-.002v3.83zm12.662-28.056l.003 7.962h-4.268l-.004-7.963h4.27zm-8.13 0v7.963h-4.27v-7.964h4.27zm-8.133 0v7.962h-4.267v-7.963h4.267zm-9.483 24.228h4.27v3.828h-4.27v-3.828zm-8.81 0h4.267l.002 3.828h-4.27l.003-3.828zm3.504 14.144v-3.965h4.422l-1.69 3.965h-2.732zm48.902 29.59l-55.32.077 13.786-33.67h2.184c-1.303 3.837-2.836 8.218-2.836 8.218l2.76.033 2.216-8.25h19.474l2.184 8.404h2.646l-2.81-8.404h2.24l13.476 33.59zm-6.26-29.59h-2.743l-1.663-3.965h4.407v3.965zm2.19-10.316h-4.27l.002-3.828 4.27.002-.003 3.826zm4.543 0v-3.828h4.27v3.828h-4.27z"/></svg>